<svg width="24" height="24" viewBox="0 0 24 24" fill="none" xmlns="http://www.w3.org/2000/svg">
<g clip-path="url(#clip0_969_5978)">
<path d="M24.75 11.4996H9.925L14.4625 6.04961C14.6747 5.79434 14.7768 5.46524 14.7463 5.13471C14.7158 4.80417 14.5553 4.49929 14.3 4.28711C14.0447 4.07494 13.7156 3.97286 13.3851 4.00334C13.0546 4.03381 12.7497 4.19434 12.5375 4.44961L6.2875 11.9496C6.24545 12.0093 6.20785 12.0719 6.175 12.1371C6.175 12.1996 6.175 12.2371 6.0875 12.2996C6.03084 12.4429 6.00118 12.5955 6 12.7496C6.00118 12.9037 6.03084 13.0563 6.0875 13.1996C6.0875 13.2621 6.0875 13.2996 6.175 13.3621C6.20785 13.4273 6.24545 13.49 6.2875 13.5496L12.5375 21.0496C12.655 21.1907 12.8022 21.3042 12.9686 21.382C13.1349 21.4597 13.3164 21.4999 13.5 21.4996C13.7921 21.5002 14.0751 21.3985 14.3 21.2121C14.4266 21.1072 14.5312 20.9783 14.6079 20.8329C14.6846 20.6874 14.7318 20.5283 14.7469 20.3646C14.762 20.2009 14.7447 20.0358 14.6959 19.8788C14.6471 19.7218 14.5678 19.5759 14.4625 19.4496L9.925 13.9996H24.75C25.0815 13.9996 25.3995 13.8679 25.6339 13.6335C25.8683 13.3991 26 13.0811 26 12.7496C26 12.4181 25.8683 12.1001 25.6339 11.8657C25.3995 11.6313 25.0815 11.4996 24.75 11.4996Z" fill="#002855"/>
</g>
<defs>
<clipPath id="clip0_969_5978">
<rect width="24" height="24" fill="white"/>
</clipPath>
</defs>
</svg>
